<?xml version="1.0" standalone="no"?>
<!DOCTYPE svg PUBLIC "-//W3C//DTD SVG 20010904//EN"
 "http://www.w3.org/TR/2001/REC-SVG-20010904/DTD/svg10.dtd">
<svg version="1.0" xmlns="http://www.w3.org/2000/svg"
 width="1500.000000pt" height="1500.000000pt" viewBox="0 0 1500.000000 1500.000000"
 preserveAspectRatio="xMidYMid meet">
<metadata>
Created by potrace 1.15, written by Peter Selinger 2001-2017
</metadata>
<g transform="translate(0.000000,1500.000000) scale(0.100000,-0.100000)"
fill="#000000" stroke="none">
<path d="M7025 14149 c-2491 -174 -4681 -1740 -5665 -4049 -266 -626 -426
-1272 -502 -2025 -18 -177 -18 -973 0 -1150 64 -637 180 -1163 376 -1703 726
-1997 2379 -3542 4417 -4127 446 -128 915 -210 1394 -245 181 -13 729 -13 910
0 1450 105 2781 648 3880 1585 191 163 564 536 729 730 911 1067 1444 2338
1578 3760 18 190 18 960 0 1150 -133 1419 -670 2698 -1578 3760 -165 194 -538
567 -729 730 -1100 938 -2443 1486 -3885 1585 -170 12 -752 11 -925 -1z m1010
-434 c1067 -94 2065 -447 2945 -1039 344 -232 599 -443 926 -770 251 -252 411
-434 585 -666 1083 -1443 1486 -3283 1108 -5050 -212 -991 -658 -1902 -1322
-2700 -155 -187 -580 -612 -767 -767 -909 -757 -1974 -1234 -3120 -1397 -322
-47 -518 -60 -890 -60 -372 0 -568 13 -890 60 -1146 163 -2211 640 -3120 1397
-187 155 -612 580 -767 767 -715 860 -1177 1849 -1367 2930 -66 371 -90 667
-90 1080 0 413 24 709 90 1080 190 1080 652 2071 1367 2930 155 187 580 612
767 767 780 649 1657 1085 2630 1307 358 81 668 123 1125 150 126 8 627 -4
790 -19z"/>
<path d="M7155 12524 c-22 -2 -92 -9 -155 -15 -781 -72 -1578 -352 -2245 -786
-493 -322 -927 -728 -1280 -1198 -208 -276 -355 -518 -509 -835 -252 -521
-399 -1032 -473 -1645 -14 -121 -18 -227 -18 -545 0 -422 8 -526 61 -840 173
-1032 658 -1972 1399 -2715 742 -745 1690 -1235 2720 -1409 319 -53 421 -61
845 -61 424 0 526 8 845 61 793 134 1532 452 2180 939 803 603 1413 1440 1733
2377 127 369 200 694 249 1103 26 216 26 874 0 1090 -99 820 -354 1538 -785
2200 -766 1179 -2000 1989 -3382 2219 -296 50 -404 58 -785 61 -198 2 -378 1
-400 -1z m2036 -5025 c924 -1849 1679 -3363 1677 -3364 -3 -3 -966 -8 -1100
-6 l-58 1 -720 1440 c-396 792 -726 1440 -733 1440 -7 0 -50 -76 -97 -169
l-84 -169 61 -129 c34 -70 314 -641 622 -1267 309 -627 561 -1141 561 -1143 0
-2 -262 -3 -583 -3 l-582 0 -335 670 c-184 369 -337 670 -340 670 -3 0 -156
-302 -340 -670 l-335 -670 -587 0 c-324 0 -588 2 -588 5 0 3 282 576 626 1273
l625 1267 -83 168 c-45 92 -88 167 -95 167 -7 0 -337 -648 -733 -1440 l-720
-1440 -555 0 c-305 0 -555 2 -555 5 0 3 547 1098 1215 2435 668 1336 1212
2436 1209 2443 -3 8 2 17 10 20 9 4 220 416 471 917 250 500 457 910 460 910
3 0 761 -1512 1686 -3361z"/>
<path d="M7219 9567 l-287 -573 270 -549 c148 -303 271 -552 274 -554 2 -2
132 257 290 575 l286 579 -274 548 -273 547 -286 -573z"/>
<path d="M8088 8388 c-80 -161 -548 -1110 -1041 -2109 -494 -999 -897 -1819
-897 -1822 0 -4 102 -7 228 -7 l227 0 826 1652 826 1653 827 -1653 826 -1652
220 0 220 0 -1056 2113 c-581 1161 -1057 2113 -1059 2115 -2 2 -68 -129 -147
-290z"/>
<path d="M5702 6535 l-1042 -2085 195 0 195 0 826 1653 827 1652 176 -352 c97
-194 178 -353 181 -353 3 0 57 105 121 233 l117 232 -271 553 c-149 303 -274
552 -277 552 -3 0 -474 -938 -1048 -2085z"/>
<path d="M7772 6065 l-112 -225 347 -695 348 -695 222 0 c123 0 223 2 223 5 0
13 -898 1829 -906 1832 -5 2 -60 -98 -122 -222z"/>
</g>
</svg>
